<?xml version="1.0" encoding="utf-8"?>
<!-- Generator: Adobe Illustrator 22.1.0, SVG Export Plug-In . SVG Version: 6.00 Build 0)  -->
<svg width="335px" height="106px" version="1.1" id="Layer_1" xmlns="http://www.w3.org/2000/svg" xmlns:xlink="http://www.w3.org/1999/xlink" x="0px" y="0px"
	 viewBox="0 0 335 106" style="enable-background:new 0 0 335 106;" xml:space="preserve">
<style type="text/css">
	.st0{fill:#C3C3C3;}
</style>
<g>
	<path class="st0" d="M76,32.6c-1.1,0.2-2.4,0.6-3.9,1.2v3.9h2c1.2-1.5,2.2-2.8,2.8-3.9c0.4-0.6,0.6-1.1,0.7-1.4
		C77.2,32.4,76.7,32.4,76,32.6z M81.3,28.7c0.2,0.2,0.4,0.4,0.5,0.6c1.9,2.6,0,5.9-0.7,7c-0.3,0.5-0.5,0.9-0.9,1.4h5.3V67
		c0.8,1.3,1.6,3.1,0.8,5c-0.2,0.4-0.4,0.8-0.8,1.1v7.2h10.1V37.6h13.5v-9H81.3z M72.1,33.8v3.9h2c1.2-1.5,2.2-2.8,2.8-3.9
		c0.4-0.6,0.6-1.1,0.7-1.4c-0.3,0-0.8,0-1.5,0.2C74.9,32.8,73.6,33.2,72.1,33.8z"/>
	<path class="st0" d="M143.5,28.7v21.1H126V28.7h-10.1v51.6H126V58.7h17.5v21.6h10.1V28.7H143.5z"/>
	<path class="st0" d="M197.5,37.6v-9h-34v51.6h34v-9h-23.9V58.7H194v-9h-20.4V37.6H197.5z"/>
	<path class="st0" d="M215.5,71.3V28.7h-10.1v51.6h33.5v-9H215.5z"/>
	<path class="st0" d="M255.8,71.3V28.7h-10.1v51.6h33.5v-9H255.8z"/>
	<path class="st0" d="M317.1,33.7c-3.5-3.5-7.8-5.4-13.8-5.4s-10.4,2-13.8,5.4c-5.1,5.2-5.2,10.9-5.2,20.8c0,9.9,0.1,15.7,5.2,20.8
		c3.5,3.5,7.9,5.4,13.8,5.4s10.3-2,13.8-5.4c5.1-5.2,5.3-11,5.3-20.8C322.4,44.6,322.2,38.8,317.1,33.7z M309.8,68.9
		c-1.5,1.7-3.7,2.8-6.5,2.8s-5-1.2-6.5-2.8c-1.9-2.2-2.5-4.6-2.5-14.4c0-9.9,0.6-12.3,2.5-14.5c1.5-1.7,3.8-2.8,6.5-2.8
		s5,1.1,6.5,2.8c1.9,2.2,2.5,4.6,2.5,14.5C312.3,64.3,311.7,66.7,309.8,68.9z"/>
</g>
<g id="Icon_-_Atomic_Red_1_">
	<g>
		<g>
			<path class="st0" d="M76,60.3c-0.9-0.7-1.9-1.3-3-2c0.2-1.3,0.3-2.5,0.3-3.8c0-3.2-0.6-6.3-1.6-9.2c0.9-0.9,1.7-1.7,2.5-2.6
				c2.6-2.8,4.6-5.3,5.7-7.3c1.4-2.4,1.6-4.2,0.7-5.4c-0.9-1.2-2.6-1.5-5.3-0.9c-2.3,0.5-5.2,1.5-8.7,3.2c-1,0.5-2.1,1-3.2,1.6
				c0,0,0,0,0,0c-0.2-0.2-0.4-0.3-0.7-0.5c0,0,0,0,0,0l0,0c-3.2-2.4-7.1-4.1-11.2-4.8c-0.3-1.2-0.6-2.4-1-3.5
				c-1.1-3.7-2.3-6.6-3.4-8.6c-1.4-2.4-2.8-3.5-4.3-3.3c-1.5,0.2-2.6,1.5-3.5,4.1c-0.7,2.2-1.3,5.3-1.6,9.1
				c-0.1,1.1-0.2,2.3-0.2,3.6c-4.1,1.6-7.8,4.3-10.6,7.7c-1.2-0.3-2.4-0.6-3.5-0.9c-3.8-0.9-6.8-1.3-9.1-1.3c-2.8,0-4.4,0.7-5,2
				c-0.6,1.4,0,3,1.8,5.1c1.5,1.7,3.9,3.7,7.1,5.9c0.9,0.7,1.9,1.3,3,2c-0.2,1.3-0.3,2.5-0.3,3.8c0,2.8,0.4,5.5,1.3,8l0,0
				c0,0.1,0.1,0.2,0.1,0.2c0,0.1,0,0.1,0.1,0.2c0.1,0.2,0.2,0.5,0.3,0.7c-0.9,0.9-1.7,1.7-2.5,2.6c-2.6,2.8-4.6,5.3-5.7,7.3
				c-1.4,2.4-1.6,4.2-0.7,5.4c0.9,1.2,2.6,1.5,5.3,0.9c2.3-0.5,5.2-1.5,8.7-3.2c1-0.5,2.1-1,3.2-1.6c3.4,2.7,7.5,4.6,11.9,5.3
				c0.3,1.2,0.6,2.4,1,3.5c1.1,3.7,2.3,6.6,3.4,8.6c1.4,2.4,2.8,3.5,4.3,3.3c1.5-0.2,2.6-1.5,3.5-4.1c0.7-2.2,1.3-5.3,1.6-9.1
				c0.1-1.1,0.2-2.3,0.2-3.6c4.1-1.6,7.8-4.3,10.6-7.7c1.2,0.3,2.4,0.6,3.5,0.9c3.8,0.9,6.8,1.3,9.1,1.3c2.8,0,4.4-0.7,5-2
				c0.6-1.4,0-3-1.8-5.1C81.6,64.5,79.2,62.5,76,60.3 M31.2,59.2c0-0.1-0.1-0.2-0.1-0.3c0-0.1,0-0.1,0-0.2c0-0.1,0-0.1,0-0.2
				c3.7-3.1,7.8-6.4,12.1-9.5c4.3-3.2,8.7-6.1,12.8-8.6c0,0,0,0,0.1,0c0.1,0.1,0.3,0.2,0.4,0.3c0,0,0,0,0.1,0.1
				c0.1,0.1,0.2,0.1,0.3,0.2c3.1,2.2,5.4,5.6,6.4,9.4c-3.7,3.1-7.8,6.4-12.1,9.5c-4.3,3.2-8.7,6.1-12.8,8.6
				C34.9,66.4,32.4,63.1,31.2,59.2 M67.5,34.1c3.3-1.6,6.1-2.6,8.2-3c2.1-0.4,3.1-0.2,3.3,0.2c0.3,0.4,0.2,1.4-0.9,3.2
				c-1.1,1.8-2.9,4.2-5.4,6.9c-0.6,0.6-1.2,1.3-1.9,2c-1.3-2.8-3.1-5.4-5.3-7.5l0,0c0,0-0.1-0.1-0.1-0.1c-0.2-0.1-0.3-0.3-0.5-0.4
				C65.8,34.9,66.7,34.5,67.5,34.1 M39.7,26.7c0.3-3.6,0.8-6.6,1.5-8.6c0.7-2,1.4-2.8,1.8-2.8c0.5,0,1.3,0.5,2.4,2.4
				c1.1,1.8,2.2,4.7,3.3,8.1c0.3,0.8,0.5,1.7,0.7,2.6c-0.7-0.1-1.5-0.1-2.2-0.1c-2.7,0-5.2,0.4-7.6,1.1
				C39.6,28.5,39.6,27.6,39.7,26.7 M47.1,37.9c2.2,0,4.3,0.4,6.2,1.2c0.1,0,0.2,0.1,0.3,0.1c0,0,0.1,0,0.1,0.1c0.1,0,0.1,0,0.2,0.1
				c-3.9,2.4-7.9,5.1-12,8.1c-4,2.9-7.9,5.9-11.4,8.9c0,0,0,0,0,0c0-0.1,0-0.2,0-0.3c0-0.1,0-0.1,0-0.2c0-0.1,0-0.2,0-0.3
				c0-0.3,0-0.7,0-1C30.5,45.3,38,37.9,47.1,37.9 M19.4,47c-3-2.1-5.3-4-6.7-5.6c-1.4-1.6-1.7-2.6-1.5-3c0.2-0.4,1.1-0.9,3.2-0.9
				c2.1,0,5.1,0.4,8.7,1.3c0.9,0.2,1.7,0.4,2.6,0.7c-1.9,2.7-3.3,5.8-4,9.1C20.8,48,20.1,47.5,19.4,47 M26.8,74.8
				c-3.3,1.6-6.1,2.6-8.2,3c-2.1,0.4-3.1,0.2-3.3-0.2c-0.3-0.4-0.2-1.4,0.9-3.2c1.1-1.8,2.9-4.2,5.4-6.9c0.6-0.6,1.2-1.3,1.9-2
				c0,0.1,0.1,0.2,0.1,0.2c0,0,0,0.1,0,0.1c0.1,0.1,0.1,0.2,0.2,0.4l0,0c1.4,2.8,3.3,5.3,5.5,7.4C28.4,74,27.6,74.4,26.8,74.8
				 M54.6,82.3c-0.3,3.6-0.8,6.6-1.5,8.6c-0.7,2-1.4,2.8-1.8,2.8c-0.5,0-1.3-0.5-2.4-2.4c-1.1-1.8-2.2-4.7-3.3-8.1
				c-0.3-0.8-0.5-1.7-0.7-2.6c0.7,0.1,1.5,0.1,2.2,0.1c2.7,0,5.2-0.4,7.6-1.1C54.7,80.5,54.6,81.4,54.6,82.3 M47.1,71.1
				c-2.4,0-4.8-0.5-6.8-1.5c3.9-2.4,7.9-5.1,12-8.1c4-2.9,7.9-5.9,11.4-8.9c0.1,0.6,0.1,1.2,0.1,1.8C63.7,63.6,56.3,71.1,47.1,71.1
				 M83.2,70.5c-0.2,0.4-1.1,0.9-3.2,0.9c-2.1,0-5.1-0.4-8.7-1.3c-0.9-0.2-1.7-0.4-2.6-0.7c1.9-2.7,3.3-5.8,4-9.1
				c0.8,0.5,1.5,1,2.3,1.5c3,2.1,5.3,4,6.7,5.6C83,69.1,83.3,70.1,83.2,70.5"/>
			<path class="st0" d="M47.1,51.9c-1.4,0-2.6,1.2-2.6,2.6c0,1.4,1.2,2.6,2.6,2.6c1.4,0,2.6-1.2,2.6-2.6
				C49.7,53,48.6,51.9,47.1,51.9"/>
		</g>
	</g>
</g>
<g>
	<path class="st0" d="M214.5,99.7l-0.8-2.3h-4.4l-0.8,2.3h-0.8l3.5-9.5h0.6l3.5,9.5H214.5z M209.5,96.8h4l-2-5.6L209.5,96.8z"/>
	<path class="st0" d="M218.5,99.7c-1,0-1.5-0.7-1.5-1.7v-4.2H216v-0.5h0.9v-2.1h0.7v2.1h1.5v0.5h-1.5v4.3c0,0.7,0.3,1.1,1,1.1h0.5
		v0.6H218.5z"/>
	<path class="st0" d="M224.8,99.1c-0.5,0.5-1.1,0.7-1.8,0.7c-0.7,0-1.3-0.2-1.8-0.7c-0.7-0.7-0.8-1.7-0.8-2.6s0.1-1.9,0.8-2.6
		c0.5-0.5,1.1-0.7,1.8-0.7c0.7,0,1.3,0.2,1.8,0.7c0.7,0.7,0.8,1.7,0.8,2.6S225.5,98.4,224.8,99.1z M224.4,94.4
		c-0.4-0.4-0.8-0.5-1.3-0.5c-0.5,0-1,0.2-1.3,0.5c-0.5,0.5-0.6,1.4-0.6,2.1s0,1.6,0.6,2.1c0.4,0.4,0.8,0.5,1.3,0.5
		c0.5,0,1-0.2,1.3-0.5c0.5-0.5,0.6-1.4,0.6-2.1S224.9,94.9,224.4,94.4z"/>
	<path class="st0" d="M236.3,99.7v-4c0-1.2-0.6-1.9-1.8-1.9c-1.1,0-1.8,0.7-1.8,1.8v4.1h-0.7v-4c0-1.2-0.6-1.9-1.8-1.9
		s-1.8,0.7-1.8,1.9v4h-0.7v-6.4h0.7v0.8c0.5-0.6,1.1-0.8,1.9-0.8c1,0,1.7,0.4,2.1,1.2c0.5-0.8,1.2-1.2,2.2-1.2
		c0.7,0,1.3,0.2,1.7,0.6c0.4,0.4,0.7,1,0.7,1.8v4.1H236.3z"/>
	<path class="st0" d="M239.3,91.1v-0.8h0.8v0.8H239.3z M239.4,99.7v-6.4h0.7v6.4H239.4z"/>
	<path class="st0" d="M245,99.8c-1.8,0-2.8-1.3-2.8-3.3c0-2,1.1-3.3,2.8-3.3c0.9,0,1.4,0.2,2.1,1l-0.5,0.4c-0.5-0.6-1-0.8-1.7-0.8
		c-0.7,0-1.3,0.3-1.7,0.9c-0.3,0.5-0.4,1-0.4,1.8s0.1,1.4,0.4,1.8c0.4,0.6,1,0.9,1.7,0.9c0.7,0,1.1-0.2,1.7-0.8l0.5,0.4
		C246.4,99.6,245.9,99.8,245,99.8z"/>
	<path class="st0" d="M258.1,98.7c-0.6,0.7-1.5,1.1-2.5,1.1c-0.9,0-1.7-0.3-2.3-0.9c-0.9-0.9-0.9-1.6-0.9-3.9c0-2.3,0.1-3,0.9-3.9
		c0.6-0.6,1.4-0.9,2.3-0.9c1.7,0,3,1.1,3.2,2.8h-0.7c-0.3-1.3-1.2-2.1-2.5-2.1c-0.7,0-1.3,0.2-1.8,0.7c-0.7,0.7-0.7,1.5-0.7,3.5
		c0,2,0.1,2.8,0.7,3.5c0.5,0.5,1.1,0.7,1.8,0.7c0.7,0,1.5-0.3,2-0.9c0.4-0.5,0.6-1.1,0.6-1.9v-0.9h-2.5v-0.6h3.3v1.5
		C258.8,97.4,258.6,98.1,258.1,98.7z"/>
	<path class="st0" d="M265,99.7v-0.6c-0.5,0.5-1.1,0.7-2,0.7c-1,0-1.5-0.2-1.9-0.6c-0.3-0.3-0.5-0.8-0.5-1.3c0-1.2,0.8-1.9,2.2-1.9
		h2.1v-0.7c0-1-0.5-1.6-1.8-1.6c-0.9,0-1.4,0.2-1.8,0.8l-0.5-0.4c0.5-0.8,1.2-1,2.3-1c1.7,0,2.5,0.8,2.5,2.1v4.4H265z M265,96.7h-2
		c-1.1,0-1.6,0.4-1.6,1.3c0,0.9,0.5,1.3,1.7,1.3c0.6,0,1.1-0.1,1.6-0.5c0.2-0.2,0.4-0.6,0.4-1.2V96.7z"/>
	<path class="st0" d="M276.6,99.7v-4c0-1.2-0.6-1.9-1.8-1.9c-1.1,0-1.8,0.7-1.8,1.8v4.1h-0.7v-4c0-1.2-0.6-1.9-1.8-1.9
		s-1.8,0.7-1.8,1.9v4h-0.7v-6.4h0.7v0.8c0.5-0.6,1.1-0.8,1.9-0.8c1,0,1.7,0.4,2.1,1.2c0.5-0.8,1.2-1.2,2.2-1.2
		c0.7,0,1.3,0.2,1.7,0.6c0.4,0.4,0.7,1,0.7,1.8v4.1H276.6z"/>
	<path class="st0" d="M280.1,96.7c0,1.6,0.7,2.5,2.1,2.5c0.8,0,1.2-0.2,1.8-0.8l0.5,0.4c-0.7,0.7-1.3,1-2.3,1
		c-1.8,0-2.7-1.1-2.7-3.3c0-2.1,1-3.3,2.6-3.3s2.6,1.2,2.6,3.1v0.3H280.1z M283.6,94.9c-0.3-0.7-0.9-1.1-1.7-1.1s-1.4,0.4-1.7,1.1
		c-0.2,0.4-0.2,0.6-0.2,1.2h3.8C283.8,95.5,283.8,95.3,283.6,94.9z"/>
	<path class="st0" d="M288.8,99.8c-1.1,0-1.9-0.3-2.6-0.9l0.5-0.5c0.5,0.5,1.2,0.8,2.1,0.8c1.3,0,1.9-0.4,1.9-1.3
		c0-0.7-0.4-1-1.2-1.1l-1.1-0.1c-1.3-0.1-1.9-0.7-1.9-1.7c0-1.1,0.9-1.8,2.3-1.8c0.9,0,1.7,0.3,2.3,0.7l-0.5,0.5
		c-0.5-0.4-1.1-0.5-1.8-0.5c-1.1,0-1.6,0.4-1.6,1.2c0,0.7,0.4,1,1.3,1.1l1,0.1c1.1,0.1,1.9,0.4,1.9,1.7
		C291.4,99.1,290.4,99.8,288.8,99.8z"/>
	<path class="st0" d="M296.5,99.7v-0.6l3.8-5c0.4-0.5,0.5-0.9,0.5-1.5c0-1.1-0.7-1.9-1.8-1.9c-1,0-1.8,0.6-1.8,1.9h-0.7
		c0-1.4,0.9-2.5,2.5-2.5c1.5,0,2.5,1,2.5,2.5c0,0.7-0.2,1.2-0.7,1.8l-3.6,4.7h4.2v0.6H296.5z"/>
	<path class="st0" d="M306,99.8c-1.5,0-2.5-1.1-2.5-2.5v-4.6c0-1.5,1-2.5,2.5-2.5c1.5,0,2.5,1.1,2.5,2.5v4.6
		C308.5,98.8,307.5,99.8,306,99.8z M307.8,92.8c0-1.1-0.6-2-1.8-2c-1.2,0-1.8,0.9-1.8,2v4.5c0,1.1,0.6,2,1.8,2c1.2,0,1.8-0.9,1.8-2
		V92.8z"/>
	<path class="st0" d="M312.6,99.7V91l-1.7,1.5v-0.8l1.7-1.5h0.7v9.5H312.6z"/>
	<path class="st0" d="M318.8,99.8c-1.5,0-2.7-1.1-2.7-2.6c0-1.1,0.6-1.9,1.5-2.4c-0.9-0.5-1.3-1.2-1.3-2.2c0-1.4,1-2.5,2.5-2.5
		s2.5,1.1,2.5,2.5c0,1-0.4,1.7-1.3,2.2c0.9,0.5,1.5,1.3,1.5,2.4C321.5,98.7,320.4,99.8,318.8,99.8z M318.8,95.1c-1.1,0-2,0.9-2,2.1
		c0,1.2,0.9,2,2,2c1.1,0,2-0.9,2-2C320.9,96,320,95.1,318.8,95.1z M318.8,90.8c-1.1,0-1.8,0.8-1.8,1.9c0,1.1,0.7,1.9,1.8,1.9
		s1.8-0.8,1.8-1.9C320.7,91.5,319.9,90.8,318.8,90.8z"/>
</g>
</svg>
