<?xml version="1.0" encoding="UTF-8"?>
<svg width="387px" height="69px" viewBox="0 0 387 69" version="1.1" xmlns="http://www.w3.org/2000/svg" xmlns:xlink="http://www.w3.org/1999/xlink">
    <!-- Generator: Sketch 41.2 (35397) - http://www.bohemiancoding.com/sketch -->
    <title>atomic-games-logo</title>
    <desc>Created with Sketch.</desc>
    <defs></defs>
    <g id="Page-1" stroke="none" stroke-width="1" fill="none" fill-rule="evenodd">
        <g id="atomic-games-logo">
            <path d="M15.33,55.75 C11.1815371,55.8933108 7.15915641,54.3111502 4.22,51.38 C0.08,47.24 0.02,42.58 0.02,34.66 C0.02,26.74 0.06,22.07 4.22,17.96 C7.15407214,15.0178616 11.1770949,13.4245853 15.33,13.56 C23.08,13.56 29.02,17.99 30.54,26.67 L22.22,26.67 C21.4,23.29 19.31,20.78 15.29,20.78 C13.3376339,20.7212377 11.4568309,21.5173834 10.14,22.96 C8.62,24.71 8.14,26.75 8.14,34.67 C8.14,42.59 8.66,44.67 10.14,46.38 C11.4696832,47.8260447 13.3669984,48.6156787 15.33,48.54 C19.33,48.54 21.51,46.03 22.33,42.65 L30.55,42.65 C29.02,51.32 23.02,55.75 15.33,55.75 Z" id="Shape" fill="#FD4F57"></path>
            <path d="M59.03,51.38 C56.1154351,54.3236014 52.0993476,55.9089946 47.96,55.75 C43.8028034,55.9099031 39.767855,54.3256511 36.83,51.38 C32.69,47.24 32.63,42.58 32.63,34.66 C32.63,26.74 32.69,22.07 36.83,17.94 C39.7661473,14.9906856 43.8013127,13.4027229 47.96,13.56 C52.104061,13.4076136 56.1212939,15.0043458 59.03,17.96 C63.17,22.1 63.28,26.76 63.28,34.68 C63.28,42.6 63.22,47.25 59.03,51.38 Z M53.15,22.96 C51.827094,21.4988709 49.9301552,20.6911185 47.96,20.75 C45.9793008,20.7119938 44.0752491,21.5150385 42.72,22.96 C41.2,24.71 40.72,26.69 40.72,34.61 C40.72,42.53 41.19,44.46 42.72,46.21 C44.0645838,47.6771173 45.9700682,48.5025848 47.96,48.48 C49.938628,48.5182703 51.8349356,47.6888641 53.15,46.21 C54.67,44.46 55.15,42.54 55.15,34.61 C55.15,26.68 54.66,24.75 53.15,22.96 Z" id="Shape" fill="#FD4F57"></path>
            <polygon id="Shape" fill="#FD4F57" points="93.22 55.4 76.75 29.96 76.75 55.43 68.65 55.43 68.65 13.96 75.88 13.96 92.31 39.37 92.31 13.96 100.41 13.96 100.41 55.45"></polygon>
            <polygon id="Shape" fill="#FD4F57" points="131.7 55.4 115.27 29.96 115.27 55.43 107.22 55.43 107.22 13.96 114.45 13.96 130.88 39.37 130.88 13.96 138.98 13.96 138.98 55.45"></polygon>
            <polygon id="Shape" fill="#FD4F57" points="145.69 55.4 145.69 13.96 173.02 13.96 173.02 21.19 153.79 21.19 153.79 30.92 170.17 30.92 170.17 38.15 153.79 38.15 153.79 48.23 173.02 48.23 173.02 55.46"></polygon>
            <path d="M191.96,55.75 C187.804674,55.8989095 183.773964,54.3163219 180.83,51.38 C176.69,47.24 176.63,42.58 176.63,34.66 C176.63,26.74 176.69,22.07 180.83,17.94 C183.773964,15.0036781 187.804674,13.4210905 191.96,13.57 C199.71,13.57 205.65,18 207.17,26.68 L198.9,26.68 C198.08,23.3 195.99,20.79 191.97,20.79 C190.005419,20.7168665 188.107851,21.5102619 186.78,22.96 C185.26,24.71 184.78,26.75 184.78,34.67 C184.78,42.59 185.3,44.67 186.78,46.38 C188.109683,47.8260447 190.006998,48.6156787 191.97,48.54 C195.97,48.54 198.15,46.03 198.97,42.65 L207.22,42.65 C205.66,51.32 199.65,55.75 191.96,55.75 Z" id="Shape" fill="#FD4F57"></path>
            <polygon id="Shape" fill="#FD4F57" points="226.52 21.14 226.52 55.4 218.42 55.4 218.42 21.14 207.58 21.14 207.58 13.96 237.36 13.96 237.36 21.19"></polygon>
            <path d="M272.22,21.15 L272.22,13.96 L244.92,13.96 L244.92,55.44 L253.01,55.44 L253.01,38.57 L269.39,38.57 L269.39,34.03 C267.39,33.09 265.69,32.1933333 264.29,31.34 L253,31.34 L253,21.15 L272.22,21.15 Z" id="Shape" fill="#00CBC4"></path>
            <path d="M318.16,40.54 L318.16,41.19 C318.15307,42.3673256 318.280562,43.5415943 318.54,44.69 L320.16,44.69 C321.251432,44.7362005 322.343613,44.618218 323.4,44.34 C322.96,43.8 321.71,42.55 318.16,40.54 Z M340.65,13.96 L340.65,40.96 C340.65,45.73 337.8,48.59 333.42,48.59 C330.956146,48.7353233 328.613441,47.508192 327.33,45.4 L327.26,45.67 C326.64,47.67 324.26,48.58 320.09,48.58 L320.01,48.58 C322.58,53.11 327.59,55.82 333.42,55.82 C341.93,55.82 348.69,50.05 348.69,41.25 L348.69,13.96 L340.65,13.96 Z M326.25,40.96 L326.25,13.96 L320.25,13.96 C319.782328,15.507056 319.088132,16.9763264 318.19,18.32 L318.19,36.24 C322.3,38.39 324.99,40.29 326.35,42.02 C326.28,41.64 326.22,41.27 326.22,40.9 L326.25,40.96 Z" id="Shape" fill="#00CBC4"></path>
            <path d="M376.96,37.51 C381.604515,35.9391818 384.679822,31.5209628 384.54,26.62 C384.54,19.68 379.54,13.92 371.09,13.92 L354.82,13.92 L354.82,55.4 L362.92,55.4 L362.92,38.86 L368.74,38.86 L376.84,55.4 L386.22,55.4 L376.96,37.51 Z M370.56,32.1 L362.92,32.1 L362.92,21.1 L370.55,21.1 C374.1,21.1 376.43,23.37 376.43,26.57 C376.43,29.77 374.1,32.1 370.55,32.1 L370.56,32.1 Z" id="Shape" fill="#00CBC4"></path>
            <path d="M318.16,37.53 C317.01,36.9 315.73,36.26 314.32,35.59 L314.32,34.32 L314.32,34.23 C314.202631,30.9437585 313.333724,27.72812 311.78,24.83 C314.224018,22.1018866 316.366426,19.1179376 318.17,15.93 C318.517849,15.2939052 318.799331,14.6237101 319.01,13.93 C319.41,12.68 319.36,11.71 318.79,11.08 C318.386012,10.66352 317.830225,10.4289344 317.25,10.43 L317.1,10.43 C314.71,10.43 310.1,12.82 304.39,16.84 C301.203307,14.7816239 297.52931,13.6018051 293.74,13.42 C290.6,5.29 287.79,0.96 285.51,0.96 C285.383579,0.948836388 285.256421,0.948836388 285.13,0.96 C283.91,1.24 283.13,2.66 282.74,5.31 C282.398218,8.76490108 282.398218,12.2450989 282.74,15.7 C279.450917,17.4073125 276.649859,19.9227587 274.6,23.01 C272.016589,22.6295259 269.410986,22.4190733 266.8,22.38 C262.8,22.38 260.54,23.14 260.1,24.65 C259.6,26.42 261.79,28.65 266.62,31.25 C267.46,31.7 268.37,32.17 269.36,32.63 C269.906667,32.8966667 270.476667,33.1633333 271.07,33.43 C271.029218,34.1894529 271.029218,34.9505471 271.07,35.71 C271.191234,38.995657 272.059909,42.2104386 273.61,45.11 C269.5,50.11 267.05,54.11 266.95,56.29 C266.877889,56.8622237 267.056316,57.4377213 267.439487,57.8687893 C267.822659,58.2998572 268.373268,58.5445258 268.95,58.54 L269.1,58.54 C271.32,58.54 275.47,56.47 280.65,52.93 C283.914616,55.1254123 287.719915,56.3811612 291.65,56.56 C293.91,62.36 297.1,68.91 299.97,68.91 C300.111931,68.9073075 300.252992,68.887156 300.39,68.85 C302.73,68.3 303.47,63.34 302.64,54.15 C306.093006,52.3434426 308.997492,49.6427193 311.05,46.33 C313.802403,46.824763 316.585693,47.1288199 319.38,47.24 L320.07,47.24 C323.21,47.24 325.63,46.69 326.13,45.15 C326.78,43.32 324.09,40.72 318.16,37.53 Z M285.46,2.47 L285.55,2.47 C286.43,2.47 288.77,4.73 292.14,13.4 L291.9,13.4 C289.255462,13.4999837 286.651989,14.0864432 284.22,15.13 C283.28,3.12 285.36,2.49 285.45,2.48 L285.46,2.47 Z M271.22,31.96 C261.02,27.27 261.48,25.2 261.5,25.1 C261.65,24.58 263.05,23.9 266.81,23.9 C269.135216,23.9288661 271.456377,24.1025357 273.76,24.42 C272.445069,26.7505098 271.583227,29.3088898 271.22,31.96 L271.22,31.96 Z M269.1,57.13 L269,57.13 C268.806951,57.1403972 268.616224,57.0838856 268.46,56.97 C268.354687,56.8072595 268.312045,56.611817 268.34,56.42 C268.41,54.77 270.48,51.25 274.34,46.53 C275.327487,48.1145429 276.517535,49.5634434 277.88,50.84 C278.36,51.28 278.88,51.69 279.36,52.09 C274.45,55.46 270.83,57.18 269.14,57.18 L269.1,57.13 Z M279.04,35.48 C278.921372,31.8662609 280.243467,28.3534623 282.715323,25.714691 C285.187178,23.0759197 288.606222,21.5274268 292.22,21.41 L292.72,21.41 C294.291001,21.4123197 295.850072,21.6828743 297.33,22.21 C294.55,24.47 291.65,26.96 288.69,29.66 C285.36,32.66 282.29,35.71 279.57,38.56 C279.296109,37.5710113 279.131789,36.5549062 279.08,35.53 L279.04,35.48 Z M283.36,44.97 C281.899444,43.6103804 280.758706,41.9436727 280.02,40.09 C282.77,37.18 285.96,34.03 289.61,30.7 C292.85,27.7 295.93,25.11 298.78,22.83 C301.696988,24.3181562 303.984978,26.8012469 305.23,29.83 C302.58,32.59 299.64,35.45 296.52,38.3 C292.85,41.65 289.4,44.56 286.24,47.04 C285.205988,46.4938122 284.247861,45.8147185 283.39,45.02 L283.36,44.97 Z M300.06,67.49 L299.94,67.49 C299.03,67.49 296.65,65.22 293.21,56.63 L293.38,56.63 C296.075193,56.5721151 298.735181,56.0055104 301.22,54.96 C302.29,66.87 300.22,67.51 300.09,67.54 L300.06,67.49 Z M306.25,34.55 C306.491724,42.0581715 300.617155,48.3485213 293.11,48.62 L292.63,48.62 C290.950846,48.6161563 289.28664,48.3043295 287.72,47.7 C290.84,45.22 294.14,42.42 297.51,39.33 C300.13,36.94 302.99,34.17 305.75,31.33 C306.035899,32.3507611 306.203664,33.4009702 306.25,34.46 L306.25,34.55 Z M310.95,23.45 C309.535631,21.2242751 307.733814,19.2700491 305.63,17.68 C311.15,13.84 315.21,11.84 317.02,11.84 L317.12,11.84 C317.314137,11.8332981 317.504713,11.8932942 317.66,12.01 C318.08,12.46 317.66,14.91 313.05,20.86 C312.44,21.74 311.73,22.61 310.99,23.5 L310.95,23.45 Z M324.73,44.76 C324.57,45.26 323.33,45.85 320.12,45.85 L318.82,45.85 C316.472934,45.7331117 314.135227,45.4726243 311.82,45.07 C313.126463,42.6143644 313.941668,39.9275845 314.22,37.16 C315.74,37.89 317.05,38.57 318.17,39.16 C325.22,43.09 324.79,44.74 324.77,44.81 L324.73,44.76 Z" id="Shape" fill="#F7F5F5"></path>
            <path d="M293.04,37.23 L292.8,37.23 C291.544581,37.2436218 290.502133,36.2640741 290.437696,35.0102362 C290.373259,33.7563983 291.309799,32.6751467 292.56,32.56 L292.8,32.56 C294.086823,32.4937258 295.183726,33.4831765 295.25,34.77 C295.316274,36.0568235 294.326823,37.1537258 293.04,37.22 L293.04,37.23 Z" id="Shape" fill="#F7F5F5"></path>
        </g>
    </g>
</svg>